<svg xmlns="http://www.w3.org/2000/svg" width="180" height="180"><g fill="none" fill-rule="evenodd"><circle cx="90" cy="90" r="90" fill="#227FBB"/><path fill="#F2C500" d="m90 57.145-4.702 2.626.898-5.563-3.804-3.94 5.257-.812L90 44.395l2.351 5.061 5.257.812-3.804 3.94.898 5.563L90 57.145Zm16.428 4.401-5.386-.076 3.56-4.369-1.325-5.314 4.959 1.925 4.567-3.207-.495 5.559 4.147 3.331-5.264 1.51-2.004 5.267-2.76-4.626Zm12.026 12.026-4.626-2.759 5.267-2.004 1.51-5.264 3.331 4.147 5.56-.495-3.208 4.567 1.925 4.96-5.314-1.326-4.369 3.56-.076-5.386ZM122.855 90l-2.626-4.702 5.563.898 3.94-3.804.812 5.257L135.605 90l-5.061 2.351-.812 5.257-3.94-3.804-5.563.898L122.855 90Zm-4.401 16.428.076-5.386 4.369 3.56 5.314-1.325-1.925 4.959 3.207 4.567-5.559-.495-3.331 4.147-1.51-5.264-5.267-2.004 4.626-2.76Zm-12.026 12.026 2.759-4.626 2.004 5.267 5.264 1.51-4.147 3.331.495 5.56-4.567-3.208-4.96 1.925 1.326-5.314-3.56-4.369 5.386-.076ZM90 122.855l4.702-2.626-.898 5.563 3.804 3.94-5.257.812L90 135.605l-2.351-5.061-5.257-.812 3.804-3.94-.898-5.563L90 122.855Zm-16.428-4.401 5.386.076-3.56 4.369 1.325 5.314-4.959-1.925-4.567 3.207.495-5.559-4.147-3.331 5.264-1.51 2.004-5.267 2.76 4.626Zm-12.026-12.026 4.626 2.759-5.267 2.004-1.51 5.264-3.331-4.147-5.56.495 3.208-4.567-1.925-4.96 5.314 1.326 4.369-3.56.076 5.386ZM57.145 90l2.626 4.702-5.563-.898-3.94 3.804-.812-5.257L44.395 90l5.061-2.351.812-5.257 3.94 3.804 5.563-.898L57.145 90Zm4.401-16.428-.076 5.386-4.369-3.56-5.314 1.325 1.925-4.959-3.207-4.567 5.559.495 3.331-4.147 1.51 5.264 5.267 2.004-4.626 2.76Zm12.026-12.026-2.759 4.626-2.004-5.267-5.264-1.51 4.147-3.331-.495-5.56 4.567 3.208 4.96-1.925-1.326 5.314 3.56 4.369-5.386.076Z"/></g></svg>